<svg width="61px" height="40px" viewBox="0 0 61 40" version="1.1" xmlns="http://www.w3.org/2000/svg" xmlns:xlink="http://www.w3.org/1999/xlink">
    <title>GDG Logo</title>
    <g stroke="none" stroke-width="1" fill="none" fill-rule="evenodd">
        <g transform="translate(-3.000000, -10.000000)">
            <g transform="translate(3.000000, 10.000000)">
                <g>
                    <polygon fill="#4285F4" points="23 20 23 26 29 26 29 35 35 35 35 20"></polygon>
                    <path d="M54.4,26.9 C53.9,25.8 53,24.9 51.9,24.2 C50.8,23.5 49.5,23.1 48.2,23.1 C46.9,23.1 45.6,23.5 44.5,24.2 C43.4,24.9 42.5,25.8 42,26.9 L42,23.5 L36,23.5 L36,40 L42,40 L42,32.4 C42.5,33.5 43.4,34.4 44.5,35.1 C45.6,35.8 46.9,36.2 48.2,36.2 C49.5,36.2 50.8,35.8 51.9,35.1 C53,34.4 53.9,33.5 54.4,32.4 L54.4,40 L60.4,40 L60.4,26.9 L54.4,26.9 Z M50.5,32.1 C50.1,32.6 49.6,33 49,33.2 C48.4,33.5 47.7,33.6 47.1,33.6 C46.5,33.6 45.8,33.5 45.2,33.2 C44.6,33 44.1,32.6 43.7,32.1 C43.3,31.6 42.9,31.1 42.7,30.4 C42.5,29.8 42.4,29.1 42.4,28.4 C42.4,27.7 42.5,27 42.7,26.4 C42.9,25.7 43.3,25.2 43.7,24.7 C44.1,24.2 44.6,23.8 45.2,23.6 C45.8,23.3 46.5,23.2 47.1,23.2 C47.7,23.2 48.4,23.3 49,23.6 C49.6,23.8 50.1,24.2 50.5,24.7 C50.9,25.2 51.3,25.7 51.5,26.4 C51.7,27 51.8,27.7 51.8,28.4 C51.8,29.1 51.7,29.8 51.5,30.4 C51.3,31.1 50.9,31.6 50.5,32.1 Z" fill="#EA4335"></path>
                    <polygon fill="#FBBC05" points="0 40 6 40 6 20 0 20"></polygon>
                    <path d="M18.8,30 C19.2,30.8 19.8,31.5 20.5,32 C21.2,32.5 22,32.8 22.8,32.8 L22.8,38.8 L16.8,38.8 L16.8,32.8 C17.6,32.8 18.3,32.5 18.8,32 L13.4,20 L20.2,20 L18.8,30 Z" fill="#34A853"></path>
                </g>
            </g>
        </g>
    </g>
</svg>
