<svg xmlns="http://www.w3.org/2000/svg" viewBox="0 0 1024 496.2" width="1024" height="496.2">
  <path d="M228.4 236.8h118.8v59.4H228.4z" fill="#4285f4"/>
  <path d="M437.4 236.8h59.4v178.2h-59.4z" fill="#ffbc05"/>
  <path d="M605.8 281.5c0-23.7 18.8-44.5 44.5-44.5s44.5 20.8 44.5 44.5-18.8 44.5-44.5 44.5-44.5-20.8-44.5-44.5m112.9 0c0-37.6-29.7-68.2-68.3-68.2s-68.3 30.6-68.3 68.2 29.7 68.2 68.3 68.2 68.3-30.6 68.3-68.2" fill="#ea4436"/>
  <path d="M783 236.8h59.4v118.8h-59.4zM866 236.8h59.4v178.2h-59.4z" fill="#0066d9"/>
  <path d="M118.8 177.4V0H0v496.2h118.8V319.2l109-109z" fill="#00ac47"/>
</svg>
